<svg width="150" height="53" viewBox="0 0 73 26" fill="none" xmlns="http://www.w3.org/2000/svg"><g clip-path="url(#clip0_1075_18063)"><path d="M68.1552 1.31752C68.3387 0.390197 69.2748 -0.188835 70.1938 0.0563982L71.7532 0.472422C72.6292 0.706136 73.1487 1.60045 72.9141 2.47043L66.891 24.7902C66.6561 25.6606 65.7549 26.1773 64.8783 25.9441L64.8446 25.935C64.0097 25.7128 63.4909 24.8865 63.6575 24.0445L68.1552 1.31752Z" fill="#3A86FE"></path><path fill-rule="evenodd" clip-rule="evenodd" d="M12.3158 9.97048C12.4753 10.2754 12.81 10.4485 13.1531 10.4033L16.2485 9.99535C16.4986 9.9624 16.7195 9.81719 16.8478 9.60151C16.9761 9.38583 16.9975 9.12358 16.9058 8.89021C16.2223 7.14991 15.0921 6.28826 13.7314 5.44933C12.2935 4.5375 10.6551 4.0899 8.84248 4.0899C7.24585 4.0899 5.75914 4.46732 4.39764 5.2254C3.0488 5.96978 1.97241 7.01528 1.1767 8.34857L1.17289 8.35503C0.385855 9.70183 0 11.2138 0 12.87C0 14.5261 0.385855 16.0381 1.17289 17.385L1.1767 17.3914C1.97181 18.7237 3.04656 19.7752 4.39242 20.5341L4.39914 20.5378C5.74835 21.2822 7.23503 21.6501 8.84248 21.6501C10.3382 21.6501 11.7169 21.3224 12.9612 20.6546L12.9646 20.6527C14.203 19.9804 15.2136 19.0796 15.9826 17.952C16.7618 16.8315 17.2459 15.5973 17.429 14.2585C17.434 14.2222 17.4365 14.1855 17.4365 14.1488V12.1521C17.4365 11.9223 17.3389 11.7032 17.1677 11.5486C16.9965 11.394 16.7676 11.3182 16.5372 11.3399L7.88366 12.1557C7.46187 12.1955 7.13972 12.5472 7.13972 12.9679V15.0094C7.13972 15.2454 7.24263 15.4699 7.42192 15.6248C7.6012 15.7797 7.83929 15.85 8.07469 15.8174L12.7724 15.1675C12.533 15.8115 12.174 16.3326 11.7057 16.7495C11.011 17.3679 10.0823 17.7077 8.84248 17.7077C7.93078 17.7077 7.14827 17.5057 6.47246 17.1205C5.79892 16.7366 5.26588 16.1935 4.86878 15.4715C4.48819 14.7377 4.28671 13.8773 4.28671 12.87C4.28671 11.8611 4.48875 11.0099 4.86737 10.2935C5.26461 9.57017 5.79812 9.02628 6.47246 8.64189C7.14827 8.25666 7.93078 8.05471 8.84248 8.05471C9.67091 8.05471 10.3644 8.22991 10.9476 8.55568L10.9591 8.56196C11.5269 8.86737 11.979 9.32636 12.3158 9.97048ZM13.2935 6.13961C14.356 6.79442 15.1808 7.40721 15.768 8.41276C15.9051 8.64747 16.0292 8.90359 16.1404 9.18663L13.045 9.59454C13.045 9.59454 13.045 9.59456 13.045 9.59454L16.1404 9.18663C15.5529 7.691 14.604 6.94727 13.2935 6.13961ZM23.7625 5.10763C23.7625 4.65706 23.3945 4.29182 22.9408 4.29182H20.365C19.9113 4.29182 19.5435 4.65706 19.5435 5.10763V15.0013C19.5435 16.3881 19.8399 17.6199 20.4771 18.6568C21.1006 19.6713 21.9508 20.4394 23.0174 20.9428L23.022 20.945C24.0749 21.4341 25.2271 21.6726 26.4655 21.6726C27.7037 21.6726 28.856 21.4341 29.909 20.945C30.9885 20.4437 31.854 19.6782 32.4937 18.6653C33.1495 17.6269 33.4552 16.392 33.4552 15.0013V5.10763C33.4552 4.65706 33.0875 4.29182 32.6336 4.29182H30.0579C29.6041 4.29182 29.2363 4.65706 29.2363 5.10763V15.0461C29.2363 16.088 28.9598 16.7302 28.5422 17.1251L28.5353 17.1319C28.1141 17.5399 27.472 17.7974 26.4881 17.7974C25.5264 17.7974 24.8783 17.5435 24.4373 17.1286C24.0327 16.7344 23.7625 16.0903 23.7625 15.0461V5.10763ZM22.9408 15.0461C22.9408 16.2277 23.2495 17.1176 23.8672 17.7159C24.3417 18.1646 24.9517 18.445 25.6972 18.5572C24.9515 18.445 24.3415 18.1646 23.867 17.7159C23.2495 17.1176 22.9406 16.2277 22.9406 15.0461V5.10763L22.9408 15.0461ZM32.6334 5.10761V15.0013C32.6334 16.2726 32.3549 17.3494 31.7975 18.2318C31.2402 19.1143 30.4946 19.7724 29.5606 20.2061C30.4946 19.7724 31.24 19.1143 31.7975 18.2318C32.3547 17.3494 32.6336 16.2726 32.6336 15.0013V5.10763L32.6334 5.10761ZM24.846 20.6944C25.2969 20.789 25.7664 20.8424 26.2548 20.8542L24.846 20.6944ZM39.7727 5.10763C39.7727 4.65706 39.4049 4.29182 38.9511 4.29182H36.3754C35.9218 4.29182 35.5538 4.65706 35.5538 5.10763V15.0013C35.5538 16.3881 35.8503 17.6199 36.4875 18.6568C37.1108 19.6713 37.961 20.4394 39.0276 20.9428L39.0324 20.945C40.0853 21.4341 41.2375 21.6726 42.4759 21.6726C43.7141 21.6726 44.8664 21.4341 45.9194 20.945C46.9989 20.4437 47.8644 19.6782 48.5041 18.6653C49.16 17.6269 49.4656 16.392 49.4656 15.0013V5.10763C49.4656 4.65706 49.0977 4.29182 48.644 4.29182H46.0684C45.6145 4.29182 45.2467 4.65706 45.2467 5.10763V15.0461C45.2467 16.088 44.9702 16.7302 44.5526 17.1251L44.5457 17.1319C44.1245 17.5399 43.4824 17.7974 42.4985 17.7974C41.5368 17.7974 40.8887 17.5435 40.4478 17.1285C40.0431 16.7343 39.7727 16.0902 39.7727 15.0461V5.10763ZM38.9511 15.0461C38.9511 16.2277 39.2599 17.1176 39.8774 17.7159C40.273 18.0898 40.7624 18.3468 41.3462 18.4871C40.7624 18.3468 40.2728 18.0898 39.8774 17.7159C39.2597 17.1176 38.9511 16.2277 38.9511 15.0461ZM40.2252 20.5311C40.8645 20.7291 41.5445 20.8366 42.2652 20.8542L40.2252 20.5311ZM45.5712 20.2061C44.754 20.5857 43.8619 20.799 42.8948 20.8465C43.8619 20.799 44.754 20.5855 45.571 20.2061C46.505 19.7724 47.2506 19.1143 47.8079 18.2318C48.3653 17.3494 48.6438 16.2726 48.6438 15.0013C48.6438 16.2726 48.3653 17.3494 47.8081 18.2319C47.2506 19.1143 46.5052 19.7724 45.5712 20.2061ZM60.1681 17.0137L55.8057 17.6839V5.10763C55.8057 4.65706 55.4379 4.29182 54.9841 4.29182H52.4085C51.9546 4.29182 51.5868 4.65706 51.5868 5.10763V20.6998C51.5868 20.9308 51.6856 21.151 51.8584 21.3056C52.0313 21.4604 52.2621 21.5351 52.4935 21.5111L60.3789 20.6952C60.7975 20.6519 61.1153 20.3017 61.1153 19.8839V17.8199C61.1153 17.5817 61.0105 17.3555 60.8284 17.2005C60.6463 17.0455 60.4051 16.9773 60.1681 17.0137Z" fill="white"></path></g><defs><clipPath id="clip0_1075_18063"><rect width="73" height="26" fill="white"></rect></clipPath></defs></svg>